# xmcd
#
# Track frame offsets: 
#        150
#        28502
#        56500
#        80182
#        97990
#        131427
#        145145
#        173052
#        199757
#        223377
#        243420
#        274485
#
# Disc length: 3916 seconds
#
# Revision: 2
# Processed by: cddbd v1.5.2PL0 Copyright (c) Steve Scherf et al.
# Submitted via: ExactAudioCopy v0.99pb3
#
DISCID=b30f4a0c
DTITLE=Big Jack Johnson - Live In Chicago
DYEAR=1997
DGENRE=Blues
TTITLE0=Pistol Packin Mama
TTITLE1=Since I Met You Baby
TTITLE2=Night Train
TTITLE3=Ain't Nothin' You Can Do
TTITLE4=Daddy, When Is Mama Comin' Home ?
TTITLE5=Twist
TTITLE6=Sweet Sixteen
TTITLE7=Fightin' Woman
TTITLE8=Steal Away
TTITLE9=The Blues Is Alright
TTITLE10=Black Rooster
TTITLE11=I Got A Whole Lotta Lovin'
EXTD=
EXTT0=
EXTT1=
EXTT2=
EXTT3=
EXTT4=
EXTT5=
EXTT6=
EXTT7=
EXTT8=
EXTT9=
EXTT10=
EXTT11=
PLAYORDER=
